<?xml version="1.0" encoding="UTF-8" standalone="no"?>
<!-- Created with Inkscape (http://www.inkscape.org/) -->

<svg
   width="97.095192mm"
   height="31.333101mm"
   viewBox="0 0 97.095192 31.333101"
   version="1.1"
   id="svg1167"
   sodipodi:docname="drawing.svg"
   inkscape:version="1.1 (c68e22c387, 2021-05-23)"
   xmlns:inkscape="http://www.inkscape.org/namespaces/inkscape"
   xmlns:sodipodi="http://sodipodi.sourceforge.net/DTD/sodipodi-0.dtd"
   xmlns="http://www.w3.org/2000/svg"
   xmlns:svg="http://www.w3.org/2000/svg">
  <sodipodi:namedview
     id="namedview1169"
     pagecolor="#ffffff"
     bordercolor="#666666"
     borderopacity="1.0"
     inkscape:pageshadow="2"
     inkscape:pageopacity="0.0"
     inkscape:pagecheckerboard="0"
     inkscape:document-units="mm"
     showgrid="false"
     fit-margin-top="0"
     fit-margin-left="0"
     fit-margin-right="0"
     fit-margin-bottom="0"
     inkscape:zoom="0.51402217"
     inkscape:cx="291.81621"
     inkscape:cy="-158.55347"
     inkscape:window-width="1920"
     inkscape:window-height="1001"
     inkscape:window-x="-9"
     inkscape:window-y="-9"
     inkscape:window-maximized="1"
     inkscape:current-layer="layer1" />
  <defs
     id="defs1164">
    <clipPath
       clipPathUnits="userSpaceOnUse"
       id="clipPath4822-0-9-7">
      <path
         id="path4824-1-3-3"
         style="fill:#ff0000;fill-opacity:1;fill-rule:nonzero;stroke:none"
         d="M 279.2168,412.19922 V 1824.4551 H 1807.3457 V 412.19922 Z m 987.9004,123.9082 v 0 h 0.01 0.012 c 0.7006,-0.0163 1.4658,0.0388 2.2891,0.17969 1.7204,0.2945 3.2278,0.93034 4.7402,1.77344 0.2353,0.13115 0.6779,0.48073 0.9844,0.55859 1.325,0.52747 2.638,1.08649 3.9844,1.55859 1.9396,0.68005 -3.6641,1.8612 -5.4922,2.80079 0.1409,0.96043 0.1803,1.27874 0.2558,1.89062 0.1208,0.0381 0.2437,0.07 0.3633,0.11133 0.5465,0.1889 1.0516,0.45777 1.5567,0.72851 0.9278,-1.11968 2.2728,-2.67899 5.0312,-4.81836 0.2011,-0.15589 0.3807,0.34548 0.5977,0.47852 0.036,0.0215 0.08,-0.0466 0.1211,-0.0391 0.1194,0.0246 0.2333,0.0769 0.3418,0.13281 0.4144,0.21347 0.8164,0.44857 1.2246,0.67383 0.1153,0.0788 0.231,0.15663 0.3457,0.23633 0.037,0.0123 0.068,0.0378 0.1054,0.0508 -0.015,-0.008 -0.051,-0.0204 -0.07,-0.0293 0.1206,0.0836 0.2398,0.16887 0.3633,0.24805 0.1023,0.0651 -0.1807,-0.16308 -0.291,-0.21875 0.2524,0.0841 0.5065,0.16546 0.7129,0.32812 0.076,0.06 0.2028,0.16671 0.3047,0.25 v 0.002 c 0.318,0.11995 0.6542,0.25739 1,0.41406 0.1527,0.0692 0.4875,0.39769 0.8105,0.73437 0.4467,0.19364 0.8695,0.44831 1.2539,0.74024 0.1244,0.0944 0.2344,0.20485 0.3418,0.31836 0.7952,0.39602 1.5819,0.78739 1.8477,0.91406 -0.1652,-0.0692 0.3549,0.27783 0.4336,0.36328 -0.052,-0.0159 -0.101,-0.0359 -0.1524,-0.0508 -0.068,-0.0199 0.1077,0.054 0.1953,0.0859 -0.01,-0.009 -0.029,-0.0234 -0.037,-0.0312 0.4613,0.14188 0.9152,0.30603 1.3731,0.45898 0.8323,0.27534 1.5,0.86233 2.248,1.27539 0.056,0.0308 0.1579,0.087 0.25,0.13867 0.5348,0.0854 1.0688,0.17268 1.5957,0.29493 0.5935,0.13765 1.1521,0.39891 1.7383,0.56445 3.607,1.01904 0.095,-10e-4 1.7305,0.33984 0.3874,0.0809 0.768,0.18872 1.1523,0.28321 0.3532,0.1446 0.6981,0.31378 1.0606,0.43359 0.046,0.0147 0.093,-0.0447 0.1406,-0.0371 0.23,0.0393 0.4563,0.10737 0.6797,0.17578 0.6624,0.20315 1.3189,0.42022 1.9765,0.63867 0.4681,0.15542 0.9192,0.36564 1.3985,0.48243 0.5116,0.12472 1.0419,0.15928 1.5625,0.23828 2.8746,0.30361 5.7434,0.64026 8.5859,1.16992 2.6663,0.49818 0.6061,0.21987 2.918,0.48633 1.6008,0.13166 3.2,0.29256 4.8008,0.43359 0.1732,-0.0359 0.1353,-0.0285 0.3906,-0.0801 0.6703,-0.0854 0.8949,-0.12312 1.6602,-0.17187 0.11,-0.007 -0.4156,0.0946 -0.3086,0.12109 0.2192,0.054 0.4374,-0.26883 0.6445,-0.21289 0.8124,-0.24529 0.6336,-0.22463 1.7344,-0.33008 0.027,-0.003 0.046,0.0363 0.072,0.0391 0.6492,0.0673 1.3147,0.0355 1.961,-0.0352 0.7464,-0.0887 0.8771,-0.1019 1.5781,-0.14844 0.058,-0.0695 0.3604,-0.0252 0.2715,-0.0195 -0.1464,0.009 -0.1629,0.0123 -0.2715,0.0195 0,0.005 -0.01,0.008 -0.012,0.0137 -0.023,0.0896 0.1808,0.0155 0.2715,0.0117 0.6523,-0.0393 1.0191,-0.12452 1.7031,-0.23828 0.6052,-0.0779 1.2052,-0.18575 1.8105,-0.26172 0.048,-0.008 0.097,0.014 0.1446,0.0156 0.3984,0.0117 0.7983,0.007 1.1953,-0.0312 0.734,0.0355 1.4747,0.0425 2.209,-0.008 0.5328,0.0206 1.0652,1.5e-4 1.5976,-0.0117 0.013,-0.0991 0.088,-0.80243 0.088,-0.7754 0,0.0307 -0.044,0.60696 -0.057,0.77344 0.1809,-0.004 0.3619,-0.01 0.5429,-0.008 0.6742,0.0189 1.3492,-0.027 2.0235,-0.0156 1.3372,0.1304 2.6791,-0.037 4.0175,-0.0332 0.4864,0 0.9729,-0.027 1.459,-0.0156 0.015,0 4e-4,0.0353 0.012,0.0371 0.7032,0.1 1.4327,0.0598 2.1347,0.002 3.3472,-0.30312 -1.8476,0.18612 2.2442,-0.26758 0.099,-0.0113 0.1974,0.009 0.2968,0.008 0.5884,-0.008 1.1724,-4.2e-4 1.7618,0.002 0.2226,0.008 0.4453,0.0253 0.6679,0.0234 0.068,-10e-4 0.1382,-0.0109 0.2071,-0.0215 0.9126,-0.42757 2.0292,-0.88018 1.0429,-0.25195 0.2605,0.0151 0.5228,0.0161 0.7832,0.0312 0.1729,0.011 0.3441,0.0413 0.5176,0.0488 0.3012,0.0141 0.6031,3.9e-4 0.9043,0.0117 1.499,0.0595 -0.3253,0.0987 1.7695,0 0.3245,-0.0276 0.6519,-0.0397 0.9746,-0.082 0.5102,-0.0669 1.0088,-0.20326 1.5196,-0.26562 0.3246,-0.0394 0.6509,-0.0637 0.9765,-0.0937 0,-3.1e-4 0.01,-0.002 0.01,-0.002 0.2512,-0.0596 0.4979,-0.11341 0.834,-0.1621 0.2066,-0.0299 0.4159,-0.0302 0.623,-0.0566 0.5486,-0.0718 1.0974,-0.1608 1.6426,-0.25 0.5852,-0.0952 0.1492,-0.0146 0.959,-0.20507 0.1799,-0.0423 0.36,-0.0853 0.541,-0.12305 0.028,-0.005 0.061,0.004 0.088,-0.004 1.2201,-0.38286 0.01,-0.0726 1.2891,-0.375 1.3265,-0.2248 0.5779,-0.0856 2.2421,-0.43554 0.3227,-0.0578 0.6519,-0.0765 0.9747,-0.13282 0.3892,-0.068 0.7712,-0.17107 1.1601,-0.24023 0.058,-0.009 0.1068,0.0164 0.1563,0.0391 0.4156,-0.16838 0.7925,-0.40628 1.205,-0.58203 0.3159,-0.13455 0.634,-0.26035 0.959,-0.37109 0.077,-0.028 0.1625,-0.0202 0.2422,-0.0391 0.082,-0.0185 0.1629,-0.0457 0.2442,-0.0684 0.153,-0.0273 0.098,0.002 -0.055,0.0918 0.4183,-0.20911 0.8341,-0.42165 1.2656,-0.60156 0.089,-0.0361 0.2225,-0.10508 0.2891,-0.0352 0.056,0.059 -0.1474,0.0734 -0.2207,0.10742 0.5065,-0.084 0.2228,-0.0153 1.0058,-0.3789 0.383,-0.17817 0.7575,-0.37793 1.1445,-0.54688 0.1598,-0.0699 0.3203,-0.18504 0.4942,-0.16992 0.082,0.007 -0.2167,0.24124 -0.1445,0.20117 0.3237,-0.17896 0.6106,-0.41794 0.916,-0.62695 0.3247,-0.12688 0.6419,-0.2705 0.9726,-0.38086 0.1451,-0.0488 0.4977,-0.24159 0.4512,-0.0957 0,0.0114 -0.01,0.0221 -0.014,0.0332 0.2346,-0.19824 0.4753,-0.38863 0.7266,-0.56445 0.1039,-0.0726 0.2345,-0.0993 0.3515,-0.14844 0.7591,-0.27137 0.6233,-0.24952 0.2793,-0.0254 -0.07,0.0457 0.1457,-0.084 0.2149,-0.13086 0.1727,-0.11679 0.3464,-0.2332 0.5195,-0.34961 0.1541,-0.007 0.3107,-0.004 0.4668,0 0.01,-0.003 0.017,-0.005 0.025,-0.008 0.035,-0.0534 0.07,-0.10161 0.1035,-0.15039 -0.04,0.0163 -0.096,0.0466 -0.074,0.0352 0.03,-0.0158 0.059,-0.0374 0.088,-0.0566 0.5473,-0.78741 0.8818,-0.99488 1.4551,-1.16406 0.018,-0.0185 0.026,-0.0237 0.045,-0.043 v -0.006 c 1.0804,-1.10639 2.1711,-1.59387 3.0957,-1.63476 2.0082,-0.0888 3.2215,1.92764 1.8437,4.26562 0.03,7.2e-4 0.06,0.004 0.09,0.004 0.2559,0 0.5117,-0.0357 0.7676,-0.0352 0.025,0 0.04,0.0347 0.066,0.0352 0.367,0.006 0.8331,-0.0762 1.1797,-0.12305 v 0.004 c 0.3396,-0.0459 0.6603,-0.0665 0.9628,-0.0664 3.726,9.8e-4 4.5618,3.25668 1.9454,4.8125 0.042,0.0419 0.085,0.0836 0.123,0.12695 0.5291,-0.006 1.059,-0.009 1.5879,-0.0156 0.4818,-0.004 0.9635,-0.0119 1.4453,-0.0156 0.3519,-0.004 0.7028,-0.008 1.0547,-0.0117 0.4969,-0.004 0.9934,-0.0119 1.4902,-0.0156 0.2307,-0.004 0.4608,-0.004 0.6914,-0.006 0.5332,-0.004 1.0683,-0.0118 1.6016,-0.0156 0.2544,0 0.5089,-0.009 0.7637,-0.0117 0.3057,0 0.3729,0.005 0.5781,0.0117 -0.07,10e-4 -0.1349,0.0257 -0.1992,0.0488 0.09,-0.0159 0.189,-0.0327 0.2715,-0.0469 0.4544,-0.0782 0.8248,-0.11911 1.3886,-0.0527 0.8088,-0.17169 0.3683,-0.0409 2.9493,-0.0742 0.029,0 -0.058,-0.0157 -0.084,-0.0195 -0.2116,-0.0287 -0.4212,-0.0794 -0.6348,-0.0801 -0.5221,-0.002 -1.4385,0.13259 -0.9101,0.0566 1.592,-0.35582 3.2686,-0.51515 4.9042,-0.33789 0.055,0.006 0.1101,0.0132 0.1641,0.006 0.014,-0.002 0.029,-0.005 0.043,-0.008 -0.032,-0.002 -0.065,-0.004 -0.098,-0.006 0.059,0.007 0.1188,-0.0198 0.1778,-0.0117 0.2855,-0.0526 0.5679,-0.12546 0.8554,-0.16602 1.402,-0.1988 1.3143,-0.16835 2.461,-0.17969 v 0.004 c 8.9094,-0.0877 8.9978,8.91231 0.09,9 -0.041,0 -0.082,5.1e-4 -0.123,0 0,-3e-5 -0.01,3e-5 -0.01,0 0.3279,0.33127 0.6761,0.64459 0.957,1.01562 0.2537,0.33483 0.404,0.73697 0.6055,1.10547 0.2674,0.71392 0.5081,1.43793 0.7519,2.16016 0.039,0.11527 0.098,0.22551 0.1172,0.3457 0.3058,1.979 0.2766,1.48555 0.1836,2.96289 0.1852,0.19884 0.028,7e-5 0.1504,0.4668 0.03,0.0771 0.062,0.15337 0.092,0.23047 0,-0.004 0.01,-0.008 0.014,-0.0117 0.099,0.47577 0.2474,0.94445 0.2988,1.42773 0.044,0.4071 -0.012,0.8192 -0.016,1.22852 -0.031,2.41698 -0.7385,2.76359 -1.7305,2.21094 0,0.019 0.01,0.0375 0.01,0.0566 0.054,0.85088 0.01,1.54585 -0.168,2.35547 -0.2869,1.14149 0.038,0.13521 -0.9258,-1.78907 -0.1152,-0.22994 -0.5721,-0.82436 -0.5195,-0.57226 0.2951,1.4194 0.8638,2.77163 1.2168,4.17578 0.2176,-0.0441 0.4484,-0.0665 0.6895,-0.0606 1.0601,0.026 2.3226,0.55833 3.5878,1.79883 0.1488,0.14582 0.2897,0.29917 0.4454,0.4375 0.7444,0.66017 -0.3721,-0.86457 1.1621,1.02539 0.1163,0.0732 0.2316,0.14794 0.3457,0.22461 0.2016,0.13512 0.3836,0.29823 0.5781,0.44336 0.2619,0.19514 0.5264,0.38688 0.791,0.57813 0.1881,0.13583 0.3921,0.25084 0.5664,0.40429 0.396,0.34934 0.7607,0.73464 1.1406,1.10156 0.8463,1.1316 1.9955,1.97252 3.0098,2.94336 0.4637,0.40411 0.759,0.94471 1.0859,1.45313 0.1646,0.25621 0.3813,0.50628 0.5586,0.75195 0.054,0.0756 0.1216,0.14235 0.1602,0.22656 0.034,0.0752 -0.082,-0.1497 -0.1484,-0.19921 -0.3914,-0.29144 -0.8098,-0.54428 -1.2149,-0.81641 -5.2299,-3.51262 3.0998,9.43498 -2.1699,5.98242 -0.8959,-0.587 -1.28,-0.68742 -1.791,-1.47265 -0.3288,-0.45661 -0.6543,-0.90665 -0.959,-1.38086 -0.094,-0.14703 0.1656,0.24078 0.1582,0.14062 -0.01,-0.0567 -0.078,-0.0834 -0.1172,-0.125 -1.028,-1.03952 -2.2846,-1.86957 -3.1406,-3.07422 -0.09,-0.11754 -0.1591,-0.25291 -0.2695,-0.35156 -0.1906,-0.17034 -0.4164,-0.29722 -0.6231,-0.44727 -0.3067,-0.22227 -0.6141,-0.44352 -0.918,-0.66992 -0.1547,-0.1149 -0.3357,-0.20384 -0.457,-0.35351 -0.033,-0.0416 0.1967,0.007 0.1543,-0.0234 -0.3112,-0.21623 -0.6602,-0.37189 -0.9902,-0.55859 -0.067,-0.0837 -0.1322,-0.16896 -0.1973,-0.25391 -0.1218,-0.0129 -0.3096,-0.29927 -0.4434,-0.40234 -0.6373,-0.49104 -0.6661,-0.54522 -1.1718,-1.04102 -0.6176,-0.60572 -1.0641,-1.21359 -1.3672,-1.80078 -0.1121,0.22718 -0.2096,0.46102 -0.3281,0.68555 -0.1293,0.2448 -0.1471,0.63648 -0.4102,0.72265 -0.1772,0.0582 -0.066,-0.72262 -0.1289,-0.54687 -0.2268,0.63152 -0.2582,1.31794 -0.3867,1.97656 -0.2846,0.57596 -0.5273,1.17493 -0.8535,1.72852 -0.2726,0.46291 -0.6072,0.88718 -0.9356,1.3125 -2.0482,2.65213 -4.3845,5.08979 -6.9609,7.23437 -0.6742,0.55034 -1.3392,1.11459 -2.0235,1.65234 -0.254,0.19953 -0.5263,0.37271 -0.789,0.56055 -0.484,0.34598 -0.9426,0.72845 -1.4414,1.05274 -0.039,0.0253 -0.097,0.0108 -0.1348,0.041 -0.3584,0.299 -0.6922,0.62456 -1.0391,0.9375 -1.07,0.64823 -1.3953,0.92697 -2.6308,1.32227 -0.7683,0.24604 -1.5511,0.4495 -2.3418,0.60937 -0.5866,0.11868 -1.1873,0.14933 -1.7813,0.22266 -2.2588,0.27855 -1.5482,0.20301 -2.8789,0.33593 -0.331,0.0438 -0.6619,0.0829 -0.9922,0.13282 -0.5785,0.0877 -1.1487,0.24156 -1.7324,0.28125 -3.7523,0.25553 -7.6134,-0.39396 -11.2187,-1.36719 -1.1544,-0.31162 -2.2477,-0.81866 -3.3711,-1.22852 -1.3457,-0.61862 -2.6885,-1.24543 -4.0371,-1.85742 0.3575,0.10022 0.7308,0.19135 0.5175,0.12696 -0.1673,-0.0505 -0.3997,-0.11313 -0.6171,-0.17188 0.025,0.0115 0.05,0.0234 0.076,0.0352 -0.166,-0.047 -0.3286,-0.0945 -0.4258,-0.13086 0.1274,0.0359 0.2284,0.0629 0.3497,0.0957 -0.2436,-0.11036 -0.4861,-0.22323 -0.7305,-0.33203 -0.9527,-0.30178 -2.0311,-0.65094 -2.2422,-1.4082 0.2333,0.13171 0.9087,0.56385 0.7012,0.39453 -0.4339,-0.35388 -0.9707,-0.57631 -1.3848,-0.95313 -0.4825,-0.43888 -1.0201,-0.91075 -1.2148,-1.5332 -0.015,-0.0563 0.016,-0.13043 -0.022,-0.17578 -0.1515,-0.18233 -0.3473,-0.32142 -0.5215,-0.48242 -0.3075,-0.28449 -0.7513,-0.6783 -1.0488,-0.99805 -0.6218,-0.66864 -1.1293,-1.43463 -1.7871,-2.07031 -0.1882,-0.19669 -0.3779,-0.38991 -0.5625,-0.58985 -0.034,-0.037 0.1067,0.0809 0.1445,0.0469 0.024,-0.0212 -0.08,-0.0548 -0.096,-0.0664 -0.098,-0.0374 -0.2123,-0.0816 -0.291,-0.11133 l -0.9453,-0.20117 c 0,-0.002 8e-4,-0.003 -0.012,-0.006 -0.3131,-0.14702 -1.0244,-0.18461 -1.2636,-0.21484 -0.2545,-0.031 -0.5056,-0.0844 -0.7618,-0.0957 -0.2149,-0.009 -0.4298,0.0258 -0.6445,0.0371 -0.4006,0.023 -1.3677,0.0889 -1.7519,0.0625 -1.8861,-0.13909 -0.9314,-0.14948 -1.8672,-0.32032 -0.1312,-0.0238 -0.264,-0.0278 -0.3965,-0.043 -1.0393,-0.0737 -0.4372,-0.0434 -1.8145,-0.0547 -5.7035,-0.37229 0.1597,0.0206 -2.5273,-0.35352 -2.1683,-0.30161 -2.1958,-0.20432 -4.5606,-0.18164 -1.9479,0.0189 -3.8959,0.0377 -5.8437,0.0566 v 0.008 c -8.9093,0.0877 -8.9973,-8.91231 -0.09,-9 1.9479,-0.0189 3.8958,-0.0377 5.8437,-0.0566 2.5976,-0.0257 2.7815,-0.1078 5.4746,0.21875 0.558,0.0677 1.0977,0.22998 1.6543,0.3086 1.4373,0.20296 0.3376,-0.003 1.1192,0.0156 0.4154,0.01 0.8308,0.0416 1.246,0.0605 0.9467,0.0877 0.8645,0.0574 1.959,0.28906 0.079,0.0167 0.1552,0.0387 0.2324,0.0605 0.2651,-0.031 0.5344,-0.0318 0.8008,-0.0469 1.6996,-0.0684 3.4604,0.0453 5.1172,0.4668 0.2173,0.0552 0.4383,0.10606 0.6504,0.17969 0.13,-7.9e-4 0.2609,-10e-4 0.3906,0.008 0.3901,0.0221 1.4363,0.49485 1.6797,0.60937 0.1962,0.0922 0.7786,0.37417 0.5703,0.31446 -0.3499,-0.10035 -0.6666,-0.29123 -1,-0.4375 -5.3205,0.42017 -2.4625,0.0258 1.5371,0.64258 0.2166,0.0336 0.3801,0.22476 0.5547,0.35742 0.7267,0.55264 1.3192,1.16645 1.9453,1.82031 0.7088,0.64143 1.2275,1.45716 1.8711,2.15625 0.1965,0.16936 0.3818,0.35317 0.5723,0.5293 0.8181,0.63968 1.3839,1.50233 1.9355,2.36523 -0.3216,-0.29546 -1.0799,-0.851 -0.8066,-0.63086 0.2756,0.22192 0.5507,0.44242 0.8281,0.66211 0.039,0.062 0.081,0.12364 0.1211,0.18555 -0.2073,-0.0993 -0.5022,-0.1983 -0.3711,-0.13672 0.1311,0.0615 0.2672,0.11848 0.4004,0.17578 -0.01,-0.0111 -0.016,-0.0221 -0.025,-0.0332 0.023,0.012 0.043,0.0233 0.062,0.0352 -0.042,-0.0684 -0.082,-0.12734 -0.1172,-0.16796 0.1238,0.0981 0.2473,0.1968 0.3711,0.29492 0.4503,0.18905 0.9018,0.37625 1.3243,0.61914 0.3675,0.21124 0.5931,0.6419 0.9843,0.80468 0.6297,0.26253 1.3317,0.29135 1.9981,0.4375 3.6769,1.33894 2.8728,1.24907 6.9531,1.84571 1.5405,0.22526 2.6538,0.27744 4.1641,0.14062 0.055,-0.005 0.077,-0.0902 0.1308,-0.10156 0.5084,-0.0998 1.0266,-0.15135 1.5391,-0.22656 1.5456,-0.16668 0.8868,-0.0918 3.0488,-0.35938 0.5826,-0.0722 1.1728,-0.10196 1.7481,-0.21875 0.249,-0.0506 0.4888,-0.13664 0.7265,-0.22851 0.8389,-0.77676 1.7907,-1.43849 2.7149,-2.10157 0.2841,-0.20379 0.5826,-0.39085 0.8574,-0.60742 0.5122,-0.40399 1.0009,-0.836 1.5019,-1.2539 2.0933,-1.75159 4.0109,-3.73318 5.6563,-5.91211 0.1733,-0.22997 0.302,-0.36889 0.4004,-0.46875 -0.1435,0.46935 -0.293,0.95518 -0.1895,0.67773 0.092,-0.24663 0.1746,-0.49755 0.2559,-0.74805 -0.023,0.0224 -0.037,0.0354 -0.065,0.0645 0.06,-0.19648 0.1279,-0.41429 0.1621,-0.5332 0.012,0.0322 0.018,0.0529 0.027,0.0781 0.1855,-0.58933 0.3667,-1.18074 0.5957,-1.75391 0.1756,-0.43869 0.4604,-0.82563 0.6797,-1.24414 0.3308,-0.63118 0.6207,-1.28739 0.916,-1.9375 -0.1147,-0.75918 0.012,-1.20115 0.2285,-2.41797 0.01,-0.0398 0.013,-0.0793 0.02,-0.11914 -0.079,-0.81488 -0.06,-0.34859 -0.088,-1.41406 -0.01,-1.26382 -0.01,-1.36838 -0.01,-1.74023 -0.1914,0.011 -0.3799,0.0225 -0.3965,0.0234 -0.7938,0.0529 -1.7949,0.0139 -2.2656,0.0215 -0.4793,0.0113 -0.9601,0.0158 -1.4395,0.0195 -0.6487,0.008 -1.2966,0.012 -1.9453,0.0195 l -2.5058,0.0215 c -0.6187,0.008 -1.2368,0.012 -1.8555,0.0195 -0.4961,0.004 -0.9923,0.0118 -1.4883,0.0156 -0.9173,-0.005 -1.8193,-0.0106 -2.7266,0.12891 -0.6066,0.0932 -0.4622,0.0526 -0.7929,0.18554 0.1595,-0.0458 0.032,-0.0105 0.2715,-0.0781 0.1035,-0.0303 -0.2066,0.0572 -0.3106,0.0859 0.018,-0.007 0.022,-0.002 0.037,-0.008 -2.8095,0.80692 4.5952,-1.20569 -4.3418,-0.51562 -0.7418,0.0573 1.4709,0.41449 2.0489,0.88281 0.2195,0.17802 -0.564,0.0443 -0.8418,0.0957 -0.3305,0.0612 -0.652,0.15973 -0.9786,0.24023 -1.6047,0.4046 -3.3007,0.82691 -4.9746,0.7207 -0.9952,-0.0634 -1.1246,-0.1408 -1.9082,-0.39062 -0.5181,-0.32111 -1.0366,-0.64359 -1.5547,-0.96485 -6.5585,-4.06444 8.499,-2.56329 7.7246,-5.09179 -0.3326,-0.17711 -0.5334,-0.38585 -0.7734,-0.77344 -0.2638,-0.23565 -0.3303,-0.42112 -0.8066,-0.71094 -0.5002,-0.30433 -1.0019,-0.60981 -1.502,-0.91406 -0.3762,-0.10354 -0.408,-0.12319 -0.7109,-0.13867 -0.093,0.0109 -0.1863,0.0211 -0.2793,0.0254 -0.038,0.002 -0.1405,-0.0425 -0.1035,-0.041 0.1687,0.006 0.2876,0.0108 0.3828,0.0156 0.1287,-0.0151 0.2563,-0.0332 0.3847,-0.0508 0.3032,-0.0425 0.3875,-0.0934 0.5489,-0.11914 -0.031,-10e-4 -0.063,10e-4 -0.094,0 -0.2305,-0.01 -0.462,-0.0141 -0.6914,-0.0371 -0.1017,0.0226 -0.141,0.0374 -0.2812,0.0625 -1.1559,0.20696 -2.3289,0.28236 -3.4981,0.38672 -0.5559,0.86256 -1.5751,1.8174 -3.0136,2.67968 -0.2343,0.14056 -0.433,0.46194 -0.7032,0.42188 -0.6811,-0.10126 -1.2199,-0.7039 -1.9004,-0.8086 -0.4714,-0.0726 -0.9313,0.21266 -1.4004,0.29883 -0.3448,0.0635 -0.7916,0.39449 -1.041,0.14844 -1.1992,-1.18309 -0.3113,-1.50967 -0.049,-1.56836 -0.1911,0.0282 -0.8322,0.0888 -2.4258,0.0762 -0.552,0.0643 -1.1665,0.45944 -1.6543,0.19336 -0.034,-0.0184 -0.059,-0.0463 -0.09,-0.0684 -1.1742,0.30115 -2.3716,0.51749 -3.5957,0.41016 0.054,0.0329 0.2192,0.0674 0.164,0.0977 -0.1541,0.0892 -0.3471,0.0715 -0.5214,0.10547 -0.4013,0.0748 -0.8032,0.14499 -1.2051,0.2168 -1.127,0.20137 -2.2607,0.33539 -3.3985,0.45899 -0.1222,0.005 -0.1862,-0.005 -0.291,0 -0.2395,0.20122 -0.4766,0.40419 -0.7051,0.61132 -1.3115,1.18914 -1.7728,0.66639 -1.8964,-0.4414 -0.1384,0.0295 -0.3018,0.071 -0.3809,0.084 -0.3079,0.0506 -0.6216,0.0614 -0.9336,0.0625 -0.062,1.7e-4 -0.1237,-0.01 -0.1855,-0.0117 -0.6313,0.22717 -1.3361,0.21612 -1.9942,0.27149 -0.6345,0.0537 -1.2651,0.15254 -1.9004,0.19336 -0.6101,0.0393 -1.2212,0.0536 -1.832,0.0801 -2.0684,0.059 -4.1388,-0.0463 -6.207,0.0117 -1.0018,0.0265 -2.0057,0.0257 -3.0078,0.0332 -1.4566,0.0136 -2.9128,0.0298 -4.3692,0.0449 -1.2852,0.0113 -2.5706,0.0258 -3.8555,0.0371 -1.0296,0.0102 -1.4749,0.0542 -2.5683,-0.14649 -0.434,-0.0797 -0.8433,-0.27572 -1.2774,-0.35547 -0.1142,-0.0208 -0.2258,0.0601 -0.3418,0.0566 -0.2778,-0.008 -2.1407,-0.23475 -2.2519,-0.24609 -1.067,-0.1372 -2.1451,-0.233 -3.2207,-0.27344 -0.4224,-0.15987 -0.8362,0.029 -1.2539,0.0215 -0.8662,-0.0121 -1.7318,-0.0398 -2.5977,-0.0625 -2.037,-0.0166 -4.064,-0.26634 -6.0957,-0.36914 -0.3705,-0.0189 -0.7405,-0.0191 -1.1113,-0.0156 -0.1099,0 -0.2205,0.0349 -0.3301,0.0274 -0.5158,-0.0444 -1.0272,-0.12272 -1.541,-0.18555 -0.093,0.004 -0.1863,0.0101 -0.2793,0.0137 -0.2934,0.008 -0.5853,0.0159 -0.8789,0.0234 -0.8552,0.0143 -1.7111,0.002 -2.5664,0.0137 -0.093,10e-4 -0.1863,0.0106 -0.2793,0.004 -3.4119,-0.24 -0.1645,-0.0244 -2.6387,-0.26172 -1.1126,-0.10658 -2.2297,-0.14512 -3.3418,-0.25586 -0.7974,-0.0794 -1.5927,-0.18752 -2.3886,-0.28125 -1.5128,-0.22103 -1.6788,-0.20407 -3.2208,-0.61328 -0.3503,-0.093 -0.6851,-0.2327 -1.0332,-0.33399 -0.1228,-0.0158 -0.2449,-0.0314 -0.3671,-0.0508 -0.023,-0.004 0.047,-0.004 0.07,-0.002 0.1,0.0149 0.2,0.0242 0.2968,0.0527 0.063,0.008 0.1248,0.0165 0.1875,0.0254 0.2152,-0.0257 0.8615,-0.0517 0.6465,-0.0781 -1.1636,-0.14854 -2.3456,-0.12875 -3.5078,-0.28711 -0.4959,-0.0676 -0.9693,-0.25374 -1.4512,-0.38867 -0.5195,-0.1457 -1.0359,-0.29854 -1.5527,-0.45313 -0.2986,-0.0892 -0.6027,-0.16282 -0.8926,-0.27734 -0.4991,-0.19707 -0.9807,-0.43779 -1.4707,-0.65625 -1.9148,-1.2689 -4.0663,-2.06524 -6.1914,-2.89844 -1.1638,-0.4487 -1.5777,-0.56791 -2.7109,-1.18945 -0.3305,-0.18131 -0.6262,-0.42046 -0.9512,-0.61133 -0.8818,-0.51715 -1.8395,-0.92535 -2.7734,-1.33203 -0.9814,-0.39799 -1.109,-0.42388 -2.1426,-0.9707 -0.2606,-0.13777 -0.4987,-0.31436 -0.7598,-0.45118 -0.4174,-0.21845 -0.9233,-0.34288 -1.3769,-0.44531 -0.117,-0.0257 -0.1147,-0.0269 -0.1953,-0.0449 0.9381,-0.24897 3.556,-0.44654 2.6777,-0.75 -2.5994,-0.0928 -4.3457,-0.1219 -5.5703,-0.12109 0.052,-0.0362 -0.1829,-0.1446 -0.168,-0.19141 -1.2749,-0.39998 -2.4886,-0.96492 -3.7246,-1.4668 -0.9083,-0.35524 -0.5986,-0.22088 -1.916,-0.84961 -0.2792,-0.13322 -0.5382,-0.3188 -0.8281,-0.42382 l -0.055,0.11718 c -0.2264,-0.003 -0.4519,0.0129 -0.6777,-0.008 -0.1354,-0.0113 0.2759,0.0166 0.4082,-0.0137 0.085,-0.0189 0.1394,-0.15662 0.2226,-0.13281 0.032,0.009 0.07,0.0257 0.1016,0.0371 l 2.5371,-6.46094 c -0.3002,-0.30485 -0.5278,-0.62488 -0.7188,-0.95117 -2.6422,3.23135 -8.2345,11.82224 -6.1425,5.99609 0.8754,-2.43806 1.7516,-4.87639 2.6269,-7.31445 0.4989,-0.0484 0.995,-0.14195 1.4961,-0.14453 0.5368,-0.003 1.0263,0.13947 1.5312,0.2246 -0.3999,-2.24995 1.5433,-4.45097 5.336,-4.53906 z m 118.9121,8.73242 c 0,0.007 -0.01,0.0147 -0.014,0.0215 0.023,-0.009 0.042,-0.0164 0.035,-0.004 -0.03,0.0472 -0.061,0.0935 -0.092,0.14063 0.044,-0.0138 0.088,-0.0264 0.1328,-0.0391 0.033,-0.0779 0.066,-0.15521 0.1094,-0.2246 -0.058,0.0318 -0.1152,0.0682 -0.1719,0.10546 z m 0.1719,-0.10546 c 0.061,-0.0333 0.1247,-0.0584 0.1933,-0.0586 0.2141,-3.9e-4 0.5612,0.004 0.9121,0.0117 0.2577,-0.0528 0.5104,-0.11043 0.752,-0.18945 -1.4104,-0.0905 -1.8002,0.35121 -1.0898,-0.31641 -0.1972,0.0848 -0.3762,0.17224 -0.4961,0.25781 -0.1128,0.0804 -0.2007,0.1806 -0.2715,0.29493 z m 1.1054,-0.0469 c -0.409,0.0838 -0.823,0.15957 -1.2148,0.27148 -0.01,0.0218 -0.017,0.0441 -0.025,0.0664 0.7648,0.0308 1.5399,0.11587 2.25,-0.13477 0.406,-0.14332 -0.3038,-0.18707 -1.0098,-0.20312 z m -23.2539,6.96094 c -0.1084,0.0104 -0.874,0.0857 -0.4785,0.11523 0.1853,-0.0453 0.329,-0.0797 0.4785,-0.11523 z m -81.1484,-9.49414 c 0,0.002 0.015,0.008 0.041,0.0195 0.1419,0.0645 0.2909,0.11704 0.4414,0.16601 -0.2221,-0.0931 -0.4928,-0.19774 -0.4824,-0.18554 z m -1.0313,0.043 c -0.01,0.0205 0.3664,0.0888 0.9571,0.24218 -0.1087,-0.0821 -0.2166,-0.16401 -0.3281,-0.24023 -0.4303,-0.009 -0.6242,-0.0167 -0.629,-0.002 z m 107.0118,1.47851 c -0.096,0.002 -0.2242,0.0238 -0.3536,0.0449 0.1113,0.12455 0.2221,0.25049 0.3301,0.37891 0.069,-0.0516 0.1361,-0.10475 0.1992,-0.16602 0.1971,-0.19131 0.089,-0.26451 -0.1757,-0.25781 z m 0.4824,1.0332 c 0.4497,0.5503 0.9053,1.09328 1.4277,1.55664 0.2922,-0.01 0.5847,-0.0195 0.877,-0.0254 -0.032,-0.33164 -0.1496,-0.70451 -0.3438,-0.79882 -0.7379,-0.35842 -1.3916,-0.58799 -1.9609,-0.73243 z m -99.0254,1.81446 c 0.1074,0.0997 -0.266,-0.0862 0.4043,0.33789 0.073,0.0457 -0.064,-0.17119 -0.1348,-0.22071 -0.08,-0.0565 -0.1489,-0.0732 -0.2695,-0.11718 z m 1.8184,1.43164 c -0.079,-0.004 -0.082,0.006 0.041,0.0371 0.6193,0.15602 1.2514,0.25673 1.8828,0.35742 -0.1247,-0.0703 -0.2472,-0.1434 -0.3731,-0.21094 -0.3772,-0.0368 -1.3131,-0.17103 -1.5507,-0.18359 z m -25.8321,3.38281 c 0.7165,0.34909 0.6697,0.52802 0.6153,0.69922 0.03,0.009 0.058,0.0259 0.088,0.0352 -0.2331,-0.24492 -1.0076,-0.88276 -0.7031,-0.73438 z m 42.2735,9.65234 c 0.3394,0.60928 0.5192,0.88863 0.8593,1.48438 0.068,-0.0229 0.1219,-0.043 0.1934,-0.0664 0.081,-0.0382 0.1146,-0.0738 0.1797,-0.11132 -0.2113,-0.26288 -0.7716,-1.05209 -0.9551,-1.27344 -0.093,-0.0102 -0.1847,-0.0231 -0.2773,-0.0332 z m 1.0527,1.41797 c -0.053,0.0249 -0.1294,0.051 -0.1875,0.0762 0.4061,0.71114 0.9503,1.69434 1.0293,1.77539 0.2795,0.28671 0.6953,0.34255 1.1133,0.40039 -1.1922,-1.69315 -1.3488,-1.82943 -1.7403,-2.31836 -0.077,0.0248 -0.1399,0.0419 -0.2148,0.0664 z m 77.3086,-0.1875 c 0.032,-0.0165 -0.1458,0.0264 -0.3418,0.0723 0.067,-4.5e-4 0.1413,-2.8e-4 0.1816,-0.002 0.091,-0.0389 0.1432,-0.0615 0.1602,-0.0703 z m 23.0391,5.88282 c -0.014,-0.0125 0.1242,0.45481 0.1953,0.61718 0.01,0.0242 0.035,0.0575 0.057,0.0898 -0.06,-0.18693 -0.1317,-0.39788 -0.2344,-0.66993 -0.01,-0.0237 -0.016,-0.0353 -0.018,-0.0371 z m -0.1836,0.18164 c -0.2395,0.91662 0.1191,1.11313 0.5703,1.1914 -0.039,-0.0112 -0.07,-0.0199 -0.127,-0.0351 -0.063,-0.0168 0.035,0.0147 0.1309,0.0449 -10e-5,-0.002 -10e-5,-0.004 0,-0.006 0.01,0.002 0.017,0.003 0.025,0.006 -10e-5,-0.037 0,-0.0992 0,-0.14453 -0.033,-0.11052 -0.065,-0.22511 -0.1211,-0.4043 -0.1649,-0.21012 -0.4055,-0.55242 -0.4766,-0.65234 z m 0.5996,1.20117 v 0.01 c 0.018,0.006 0.031,0.008 0.049,0.0137 v -0.01 c -0.015,-0.004 -0.029,-0.009 -0.045,-0.0137 z m 0,0.01 c -0.017,-0.005 -0.013,-0.005 -0.02,-0.008 0.02,0.003 0.01,0.0481 0.024,0.0508 z m 1.125,0.17188 c 0.063,0.0261 0.1158,0.0659 0.164,0.10937 0.037,0.0176 0.4741,-0.0115 0.5469,-0.0156 0,-0.0167 -0.013,-0.0322 -0.018,-0.0488 v -0.0156 c -0.2073,-0.007 -0.5566,-0.027 -0.6894,-0.0293 z m 0.7519,0.0312 c 0,0.0207 -3e-4,0.0418 0,0.0625 0.1368,-0.009 0.01,-0.005 0.9024,-0.0254 -0.4539,-0.0254 -0.6213,-0.0267 -0.9024,-0.0371 z m -1.0429,0.34375 c 0.2015,0.48907 0.4525,0.94065 0.8457,1.28515 0.8515,0.74665 2.1928,0.5693 3.289,0.85352 -2.3542,-1.41782 -3.5188,-1.90665 -4.1347,-2.13867 z m -0.7168,2.97851 c -8e-4,0.0261 0,0.052 0,0.0781 -6e-4,0.1217 0.056,0.4846 0.045,0.36328 -0.019,-0.22149 -0.027,-0.29281 -0.041,-0.44141 z m 0.5996,0.9043 c -0.082,-0.0228 -0.4746,0.33382 -0.4512,0.45117 0.014,0.0694 0.032,0.1379 0.047,0.20703 0.3627,-0.45822 0.4556,-0.64404 0.4043,-0.6582 z m -54.0782,5.07227 c 0.1587,0.045 0.3167,0.0906 0.4786,0.12109 0.1,0.0185 -0.1869,-0.079 -0.2852,-0.10547 -0.044,-0.01 -0.145,-0.0123 -0.1934,-0.0156 z m 66.9707,0.0469 c 0.2543,0.1646 0.5138,0.3212 0.7715,0.48047 v -0.006 c -0.1849,-0.11411 -0.627,-0.38859 -0.7676,-0.47461 z m -60.916,0.44922 c -0.5408,0.0389 -2.1615,0.0529 -1.623,0.11719 0.6398,0.0757 1.2881,0.002 1.9336,-0.0156 -0.1124,-0.0373 -0.2406,-0.0815 -0.3106,-0.10156 z m 56.5586,3.60156 c -0.03,-0.002 0.2969,0.48096 0.4395,0.63672 0.041,0.0453 0.1095,0.0805 0.1836,0.11328 -0.1877,-0.24545 -0.378,-0.48869 -0.586,-0.71679 -0.02,-0.0223 -0.033,-0.033 -0.037,-0.0332 z m -46.0117,4.86914 h 0.01 c 0.021,0.0195 0.05,0.0444 0.066,0.0606 -0.016,-0.0125 -0.035,-0.0245 -0.051,-0.0371 -0.01,-0.008 -0.015,-0.0155 -0.021,-0.0234 z m 0.1738,0.24805 c 0.063,0.0991 0.1274,0.19869 0.1914,0.29688 0.069,0.10541 -0.026,-0.0914 -0.1328,-0.27149 -0.019,-0.008 -0.039,-0.017 -0.059,-0.0254 z m 0.059,0.0254 c 0.027,0.0114 0.053,0.0238 0.08,0.0352 -0.01,-0.006 -0.014,-0.0137 -0.022,-0.0195 -0.016,-0.0122 -0.049,-0.0256 -0.072,-0.0391 0,0.008 0.01,0.0155 0.014,0.0234 z m 23.2696,2.53125 c -0.065,0.0517 -0.183,0.15039 -0.2891,0.23828 0.056,-0.0221 0.1125,-0.0422 0.168,-0.0644 0.2022,-0.0809 0.1759,-0.0892 0.1211,-0.17383 z" />
    </clipPath>
  </defs>
  <g
     inkscape:label="Layer 1"
     inkscape:groupmode="layer"
     id="layer1"
     transform="translate(-27.63264,-190.226)">
    <path
       id="path89199"
       style="display:inline;fill:#ffffff;fill-opacity:1;stroke:#000000;stroke-width:0.999999px;stroke-linecap:butt;stroke-linejoin:miter;stroke-opacity:1"
       transform="matrix(0.00776158,0.01855165,-0.02025787,0.00710786,89.473557,179.14078)"
       d="m 806.04883,412.70117 c -4.80763,-0.015 -9.5309,0.0996 -10.90235,0.20313 -11.01736,0.82926 -40.58029,13.35196 -45.97851,19.41406 -3.38631,3.80239 -38.8484,22.78581 -77.08399,48.63086 -32.8919,22.23299 -66.24215,48.3342 -90.73632,68.20117 -24.72397,20.05334 -60.02519,49.5454 -93.56446,84.4668 -1.91864,1.9977 -3.74366,3.92145 -5.46875,5.75781 -15.3273,16.32998 -23.85483,26.28944 -34.41211,37.26367 -5.67367,5.89773 -27.94843,28.11807 -44.13086,46.24805 -25.47889,28.54522 -40.21334,49.89291 -49.99609,69.46289 -9.49789,19.0001 -20.23123,48.39509 -29.65234,93.5293 -17.08378,81.84468 -18.48944,128.14819 -27.09375,149.21879 -0.1818,0.4465 -0.36679,0.8806 -0.55274,1.3046 -5.09637,11.6224 -8.01844,13.2721 -8.92187,-1.664 -0.50297,-8.5001 -0.23437,-23.4995 1.79492,-43.88478 5.05343,-50.76945 9.64302,-75.83567 6.14648,-89.93164 -1.3569,-5.47064 -3.55695,-5.16271 -7.86914,32.01953 -3.29156,28.38523 -6.78934,61.21156 -7.70507,101.50979 -1.31682,61.9497 4.0283,104.737 7.36914,140.58 6.52297,69.9863 28.52306,136.0057 54.55078,182.7813 15.20759,27.3303 47.26979,69.1903 84.5625,104.4687 23.35872,22.0483 42.72967,35.956 42.46484,33.4805 -0.18368,-1.7241 -4.77836,-6.9035 -10.0957,-11.5781 -5.348,-4.7015 -9.73283,-10.2679 -9.85547,-12.3106 -0.13947,-2.3252 10.31718,5.0729 26.88281,16.8086 18.0367,12.7779 37.87791,26.5956 63.80078,42.6758 48.27413,29.9449 64.62328,38.438 26.91406,19.0821 -15.85575,-8.1388 -31.27036,-16.48 -33.36328,-17.0508 -2.06392,-0.5663 10.5261,18.2644 29.45704,40.25 20.22927,23.4934 42.70419,44.9731 61.64843,59.9433 15.0497,11.8928 16.70971,13.7891 4.91992,13.1953 -10.66941,-0.5372 -11.00072,1.1724 3.61524,11.9766 16.12505,11.9196 20.77559,13.5318 39.75781,14.0879 11.49593,0.3364 11.80428,4.3215 61.57227,29.2285 18.66716,9.3422 37.48733,18.1653 55.99023,26.3867 64.6673,28.6285 158.37134,64.9043 255.53322,85.4024 38.2658,8.0729 74.135,11.2372 110.3691,9.7344 35.7867,-1.4852 78.7927,-7.8486 129.252,-23.1934 18.6522,-5.7367 38.9771,-12.9102 60.6308,-21.8516 140.799,-58.1389 231.994,-142.1917 277.3731,-189.9843 47.879,-50.4257 76.3126,-93.782 90.4414,-117.5606 3.3099,-5.6185 6.3477,-11.0189 9.1699,-16.2422 22.5111,-41.6636 45.51,-96.2724 61.7324,-161.3262 16.2998,-65.364 24.2174,-135.0742 21.8047,-206.3007 -1.3535,-39.9561 -6.8526,-94.40747 -22.3144,-156.40824 -18.9372,-74.85347 -47.9658,-142.65957 -82.6836,-201.6914 -33.1996,-56.45042 -66.344,-95.48007 -78.6094,-108.33594 -20.553,-21.54263 -32.007,-35.09252 -62.2715,-64.69922 -23.6748,-23.16019 -46.4097,-42.99389 -52.209,-49.81836 -2.2683,-2.66929 -6.2629,-6.48257 -11.58,-10.98633 -21.299,-17.94289 -55.2379,-40.1452 -91.0196,-56.64258 -36.4573,-16.8088 -71.3361,-18.73722 -88.5136,-8.88671 -16.5524,9.49149 -42.6404,8.39485 -88.0684,4.06836 -47.5817,-4.53151 -69.9593,2.66101 -71.8086,14.54687 -1.3962,8.97456 18.018,29.8142 33.9746,37.73828 3.715,1.84407 4.2256,1.40374 0.6445,-1.27734 -3.4676,-2.59571 -3.6524,-5.21754 -0.2539,-5.80469 4.4242,-0.7643 9.6703,1.23713 18.6016,7.5918 48.5045,55.6633 161.554,1.4459 220.5998,47.32212 5.8186,4.64266 11.5681,9.38488 17.2441,14.22656 0.2011,0.17197 0.4025,0.34505 0.6036,0.51758 -0.011,-0.37908 -0.024,-0.75936 -0.035,-1.13867 -0.1001,-3.26782 -0.2246,-6.54226 -0.375,-9.82422 -0.2683,-5.84655 3.4015,-8.00113 13.7051,-4.67969 14.2643,4.6221 61.6031,29.28039 122.9804,88.5918 51.1162,49.39548 86.6031,99.54726 110.9903,146.28516 24.4428,46.84445 43.9194,102.01621 54.9121,168.24219 0.6571,4.032 1.2844,8.12056 1.8809,12.26757 5.4421,37.831 6.8001,68.6496 6.5703,91.6954 -0.2355,23.6326 -2.1826,46.1854 -5.9766,70.4296 -6.7466,43.1124 -16.4279,85.3916 -31.0234,130.5743 -15.8839,49.1708 -30.4171,74.1221 -36.1602,77.5761 -6.3196,3.8008 -2.6662,-14.9764 4.334,-54.3281 9.1346,-51.3504 7.208,-77.7453 2.8457,-91.5332 -4.8949,-15.4717 -10.9236,-6.1444 -11.3379,12.7012 -0.1557,7.0863 1.4928,32.0863 2.2148,56.0176 0.7732,25.6205 -2.2775,53.9937 -8.582,80.9179 -6.251,26.6962 -15.2165,49.7634 -23.9941,64.0215 -7.6502,12.4265 -16.2859,24.0531 -26.5176,35.3027 -20.943,22.9276 -52.1035,47.8465 -97.6484,71.377 -40.534,20.9415 -95.4555,44.8381 -127.1231,58.1387 -26.9799,11.3316 -41.5698,16.143 -57.7617,23.0918 -16.1919,6.9487 -33.9452,16.2437 -68.6914,29.5605 -24.3161,9.3193 -47.0025,16.2997 -61.9336,20.8125 -17.3717,5.2586 -48.5758,14.5907 -75.6621,20.9004 -44.5371,10.3757 -82.8593,15.177 -122.0176,17.5781 -15.81351,0.9685 -42.69916,1.5691 -75.40624,-1.1953 -33.41556,-2.8242 -67.4246,-8.6646 -100.89258,-17.8066 -7.38097,-2.0162 -14.88604,-4.2148 -22.49805,-6.6172 -65.43663,-20.5989 -114.63103,-48.4806 -146.57812,-68.627 -68.65278,-43.2936 -123.9161,-98.6953 -164.4668,-163.6015 -19.19252,-30.6436 -38.15378,-68.3026 -53.21289,-113.0098 -20.47166,-60.7758 -28.07467,-115.2234 -31.8418,-150.9082 -3.68505,-34.9077 -5.71805,-73.8691 -6.49804,-101.9297 -0.33259,-11.2738 -0.53024,-23.2103 -0.46485,-35.3906 0.11943,-22.23978 0.86134,-35.65679 0.45704,-50.97661 -0.40433,-15.31983 -2.11169,-32.49911 -2.31836,-63.29492 -0.37958,-56.57137 7.87295,-99.86811 18.69531,-131.73633 10.90349,-32.10682 29.65553,-68.34946 62.78906,-110.35547 5.28714,-6.70061 11.06586,-13.69478 17.35938,-20.92188 41.51199,-47.66947 84.73596,-80.6058 104.44922,-93.42773 24.89345,-16.19134 43.37189,-27.59679 67.08593,-41.49805 20.48859,-12.01047 36.49566,-20.95276 39.16016,-24.43945 2.65639,-3.47614 14.48039,-10.73378 26.90625,-15.98438 18.0604,-7.63135 38.61722,-18.06928 50.45508,-25.29101 12.26591,-7.48288 18.28467,-13.42545 8.52343,-13.46094 z m 637.24807,90.88672 c 4.0762,0.14089 11.7087,2.21344 19.6211,5.6875 4.2136,1.85 9.1348,4.42987 14.1113,7.38281 7.5417,4.49677 14.8242,9.62309 19.7109,13.89063 13.4081,11.70879 11.59,11.16781 0.4903,5.07812 -6.0628,-3.32625 -15.0306,-8.06058 -25.5274,-13.17383 -3.958,-1.91863 -7.7679,-3.71358 -11.3769,-5.37109 -11.042,-5.07114 -16.8332,-7.81923 -19.2403,-9.96094 -1.3939,-1.24093 -1.4849,-2.17743 -0.5586,-3.00976 0.4468,-0.40149 1.4108,-0.5704 2.7696,-0.52344 z m -923.82034,15.84375 c -0.73962,-0.0508 -1.58892,-0.0402 -2.55273,0.0371 -16.2189,1.30008 -37.93072,15.21772 -71.32031,59.90039 -4.87775,6.52751 -9.38306,12.7321 -12.97852,17.67383 -17.47098,24.09044 -20.26125,27.07935 -40.10547,49.54883 -15.7578,17.84231 -36.33442,45.91117 -53.02734,74.80664 -25.87887,44.79617 -25.86586,48.35444 -31.93164,50.31836 -9.56847,3.09758 -16.78421,28.14647 -9.80664,33.62304 1.70717,1.33682 3.41629,2.66888 5.1289,3.9961 8.56778,-21.35074 18.13699,-42.27016 28.66602,-62.67383 20.28835,-39.31529 47.57563,-79.56118 75.67578,-112.02539 10.21455,-11.80082 19.95637,-22.62095 30.16797,-33.5332 14.13891,-15.06312 26.65172,-27.49091 32.10547,-33.57618 12.41994,-13.85813 20.35377,-20.088 29.05273,-24.15625 18.54401,-8.66434 32.02017,-23.17783 20.92578,-23.93945 z m 159.76758,138.30078 c -0.39919,0.35188 -0.79691,0.70293 -1.19531,1.04883 1.42692,0.0654 2.94635,0.30081 4.48828,0.59766 -1.03461,-0.60511 -2.13103,-1.15334 -3.29297,-1.64649 z m -20.85352,23.02539 c -0.17377,0.22148 -0.30178,0.38708 -0.47265,0.59571 0.25209,-0.008 0.50734,-0.0139 0.75781,-0.0215 l 0.002,-0.002 c -0.0968,-0.19692 -0.19035,-0.37547 -0.28711,-0.57227 z M 365.26367,804.13672 c 3.58619,-1.13502 -10.04514,35.01182 -21.82422,78.5625 -17.3798,64.25817 -17.80135,84.92304 -26.38867,127.36528 -1.71671,8.4814 -3.26674,17.0209 -4.64648,25.6132 -0.0411,0.2574 -0.0823,0.5142 -0.12305,0.7715 0.0155,-0.2581 0.0311,-0.5152 0.0469,-0.7734 0.67959,-10.998 1.63885,-21.9656 2.87305,-32.8906 2.96204,-26.22817 5.90196,-53.14058 14.40235,-93.82622 8.69371,-41.609 19.05945,-71.1289 23.48046,-82.60937 5.37353,-13.95398 8.34244,-18.46282 11.22852,-21.48047 0.39778,-0.41592 0.71209,-0.65675 0.95117,-0.73242 z m 245.99024,40.6289 c -0.17563,0.10527 -0.43207,0.32505 -0.76172,0.64649 -0.54463,1.52935 -1.02659,2.92065 -1.48047,4.24023 l 0.002,0.002 c 0.48408,-0.78237 0.9661,-1.57971 1.42188,-2.41797 1.14403,-2.07321 1.34524,-2.78643 0.81836,-2.47071 z m 1045.13869,14.78516 c -4.3985,-0.65384 -6.5836,7.63738 -5.2364,18.69141 v 0.002 c 0.6453,5.29451 1.9242,11.59297 3.9063,18.79297 5.347,19.42428 15.4147,39.64835 21.1895,40.31445 2.3042,0.25663 2.8791,-9.0162 1.7226,-20.92968 -1.1759,-12.11256 -4.0502,-26.11229 -7.9238,-36.18946 -5.4746,-14.24512 -10.2343,-20.16953 -13.6563,-20.68164 z M 381.25391,878.88477 c 2.97615,-0.0753 5.57676,7.69771 6.24414,25.29492 1.06828,28.16322 -0.60474,68.21978 -4.58008,81.35156 -0.29972,0.99727 -0.61608,1.88807 -0.95703,2.67969 -3.92119,9.1234 -11.29244,0.76264 -11.52344,-52.70899 -0.14934,-34.56725 5.85616,-56.49162 10.81641,-56.61718 z M 1768.5664,1007.0781 c 1.1543,-0.1452 2.2407,9.6772 3.0156,38.1074 0.7538,27.6356 -2.6226,67.9741 -10.8086,108.7422 -7.7205,38.4503 -18.383,69.6029 -20.9609,70.3692 -6.3883,1.8987 4.9391,-25.2456 17.459,-117.0606 3.4678,-25.4313 5.331,-47.1998 6.5371,-62.6386 1.2348,-15.8057 3.0707,-37.3074 4.7578,-37.5196 z m -1373.27734,51.1602 c 0.10392,0.023 0.2024,0.1089 0.29297,0.2558 1.96619,3.1895 3.20562,25.3009 6.08789,52.2989 3.41431,31.9812 7.08891,54.3083 12.0625,83.2265 8.4923,49.3778 18.82725,82.4312 27.47266,110.3106 h 0.002 c 2.11884,6.8312 3.19987,10.6623 2.58789,10.2597 -1.20869,-0.7952 -16.77329,-35.726 -27.95703,-79.3164 -13.46918,-52.4972 -17.371,-89.8836 -20.66406,-122.0254 -4.22947,-41.272 -1.44348,-55.3484 0.11523,-55.0097 z m -69.03711,247.4883 c 0.10622,0.1169 0.27414,0.4508 0.50196,1.0156 1.17399,2.9069 10.26247,22.7404 22.96289,45.543 10.42717,18.7208 16.17029,27.9242 16.6914,29.7519 0.30573,1.071 -1.19125,-0.4745 -4.3457,-4.5449 -6.67957,-8.6188 -16.10982,-23.9446 -22.45312,-36.9199 -6.15465,-12.5893 -11.39969,-25.7123 -12.58985,-30.3086 -0.84777,-3.2742 -1.08623,-4.8878 -0.76758,-4.5371 z m 1336.61135,88.8183 c 0.3759,0.022 0.5653,0.4723 0.5527,1.3906 -0.019,1.3382 -5.3061,16.2538 -15.2851,38.5508 -17.5512,38.9368 -43.3945,86.2123 -79.8868,135.2461 -35.7513,48.0382 -70.7494,82.8123 -90.5879,100.6055 -16.926,15.181 -33.5827,27.9154 -37.9335,30.4512 -3.8294,2.2325 9.3571,-9.5074 28.1972,-28.3418 20.2552,-20.2491 44.1249,-45.8283 69.1602,-77.6758 25.1135,-31.947 45.732,-62.9922 63.0761,-92.4317 16.5574,-28.1027 27.6021,-50.5076 31.7891,-57.7793 2.9607,-5.1417 5.6901,-9.9144 8.2949,-14.4667 5.9406,-10.4458 10.8452,-19.0625 14.6485,-25.2461 4.0437,-6.5765 6.847,-10.3684 7.9746,-10.3028 z m -435.7324,249.3028 c 1.6689,0.3781 -0.1008,2.9958 -4.2657,6.8359 -9.4568,8.7155 -28.609,21.5287 -48.3711,30.4824 -35.9826,16.3028 -71.4428,22.8975 -81.6093,19.502 -4.1399,-1.3827 -15.3003,-1.1214 -27.7403,0.2265 -12.7754,1.3835 -35.1597,1.5582 -55.3125,-0.2597 -24.17336,-2.1809 -54.68663,-2.7658 -103.207,-8.7793 -40.93028,-5.0725 -75.3287,-14.2808 -99.85156,-22.916 -21.15432,-7.4507 -32.09087,-13.3618 -29.4336,-13.8887 2.064,-0.4093 14.80938,2.8926 28.17578,6.7109 0.96499,0.2755 1.97393,0.5637 3.0254,0.8613 29.94372,8.4798 72.72212,19.072 127.71875,23.8965 54.16958,4.752 95.51953,1.7209 116.72463,0.4102 24.2486,-1.4985 64.0197,-7.3928 105.248,-19.6934 29.4325,-8.7789 50.0969,-16.8126 62.6211,-21.3769 1.8811,-0.6858 3.3658,-1.2118 4.4336,-1.5567 1.0327,-0.3382 1.6697,-0.4963 1.8438,-0.455 z"
       clip-path="url(#clipPath4822-0-9-7)"
       sodipodi:nodetypes="scsssscssssccccscccsccssssscsssscscscccscssscsssscscsscssccsccscssccsssssssssscsssscccsscscsscsssscsssssssssscsscscssscscsscccsscscssccccscccssssccccccsssssccccsssssscscssssccssscsssssscssccsccsssccccssssccsscsscsccsccssccccsscsccscc"
       inkscape:export-filename="C:\Users\helen\Desktop\darczi\logo2.png"
       inkscape:export-xdpi="300"
       inkscape:export-ydpi="300" />
    <path
       id="path89201"
       style="font-size:64px;line-height:1.25;font-family:'Franklin Gothic Book';-inkscape-font-specification:'Franklin Gothic Book, ';white-space:pre;stroke-width:0.195821;fill:#ffffff"
       d="m 27.63264,202.96798 v 7.85296 h 2.968603 c 0.935918,0 1.682003,-0.36174 2.296725,-1.12047 0.616684,-0.7652 0.925591,-1.69783 0.925591,-2.82707 0,-1.11161 -0.315737,-2.03037 -0.948131,-2.78788 -0.624818,-0.74842 -1.476536,-1.11754 -2.620357,-1.11754 z m 25.574261,0 v 7.85296 h 0.550431 v -1.75997 l 1.608051,-1.81198 1.908452,3.57195 h 0.527203 l -2.103509,-3.78879 1.741,-1.91465 h -0.476594 l -3.204603,3.47151 v -5.62103 z m -24.937343,0.45418 h 1.923637 c 1.00133,0 1.787466,0.35972 2.271421,1.06597 0.472,0.68279 0.709606,1.46045 0.709606,2.31254 0,1.03649 -0.243982,1.89498 -0.747097,2.55168 -0.509015,0.66439 -1.278385,1.00225 -2.23393,1.00225 h -1.71317 -0.210467 z m 16.649816,1.51362 v 2.2e-4 c -0.271967,0 -0.539024,0.0842 -0.816109,0.26751 l -2.79e-4,2.8e-4 h -2.27e-4 c -0.236128,0.15516 -0.533658,0.56132 -0.827373,1.21909 -0.08775,0.19356 -0.427358,0.152 -0.403221,-0.0824 v -1.22314 h -0.432891 v 5.70367 h 0.55043 v -3.03131 -0.004 c 0.02612,-0.67344 0.231373,-1.24178 0.621967,-1.67305 0.386554,-0.42682 0.89806,-0.65041 1.480857,-0.6539 v -0.51227 c -0.05727,-0.003 -0.131142,-0.011 -0.172981,-0.011 z m -7.007485,0.0122 2.33e-4,2.3e-4 c -0.785327,0 -1.380573,0.13865 -1.793218,0.39135 -0.350773,0.21481 -0.557215,0.53056 -0.679933,0.93132 l 0.483497,0.0817 c 0.110391,-0.3173 0.287045,-0.59124 0.563315,-0.7683 0.332785,-0.21327 0.764533,-0.30916 1.283957,-0.30916 0.426964,0 0.786903,0.0669 1.076255,0.21797 0.282176,0.14732 0.488852,0.36462 0.581706,0.63498 0.095,0.2603 0.129506,0.62045 0.129506,1.11484 v 0.21482 l -0.219442,-0.009 c -0.377949,-0.0161 -0.653052,-0.0243 -0.819555,-0.0243 -1.2642,0 -2.134585,0.20602 -2.606088,0.55753 l -6.06e-4,6.1e-4 -6.06e-4,2.2e-4 c -0.494009,0.36457 -0.720415,0.79584 -0.720415,1.3551 0,0.45903 0.160191,0.83196 0.500518,1.16146 0.328655,0.3182 0.8023,0.48547 1.466133,0.48547 0.972197,0 1.60251,-0.36639 2.001382,-1.15109 l 0.345946,-0.68093 0.05221,0.75884 c 0.03116,0.45407 0.06202,0.71356 0.09109,0.90971 h 0.541688 c -0.05982,-0.31105 -0.11294,-0.62701 -0.11294,-0.98086 v -2.5974 c 0,-0.89381 -0.183169,-1.48536 -0.486027,-1.79531 l -9.09e-4,-9.1e-4 -9.09e-4,-9.1e-4 c -0.301321,-0.31532 -0.84673,-0.49809 -1.677285,-0.49809 z m 10.891558,0 c -0.776806,0 -1.395582,0.27061 -1.908912,0.83359 h -6.06e-4 v 6.1e-4 c -0.510452,0.55606 -0.768716,1.28261 -0.768716,2.21752 0,0.91502 0.248679,1.62866 0.739049,2.17654 0.490545,0.544 1.109803,0.80837 1.914203,0.80837 0.609382,0 1.122551,-0.15611 1.564118,-0.46881 0.375306,-0.26921 0.616609,-0.602 0.781603,-0.9813 l -0.486724,-0.098 c -0.363297,0.74944 -0.982203,1.17879 -1.790912,1.17879 -0.4936,0 -0.964649,-0.18509 -1.389997,-0.53209 -0.471649,-0.38477 -0.669582,-1.07594 -0.669582,-2.02905 v -0.20581 h 4.524903 c -0.04163,-0.95894 -0.277412,-1.67247 -0.699485,-2.14028 h -6.06e-4 v -6.1e-4 c -0.457009,-0.51077 -1.040742,-0.75952 -1.808627,-0.75952 z m 0.03081,0.31479 -2.3e-4,2.3e-4 c 0.396275,0 0.754703,0.10868 1.047957,0.32605 l 9.09e-4,6.1e-4 c 0.281961,0.2053 0.49084,0.4643 0.612537,0.76671 0.117809,0.29278 0.1792,0.62188 0.187924,0.98469 l 0.0051,0.21077 h -3.873709 l 0.01591,-0.22023 c 0.04383,-0.60919 0.2492,-1.11899 0.621279,-1.49673 l 9.09e-4,-9.1e-4 6.06e-4,-2.8e-4 c 0.373034,-0.37408 0.848279,-0.57059 1.381025,-0.57059 z m -10.390573,2.46432 h 2.3e-4 c 0.211491,0 0.513097,0.0128 0.902818,0.0365 h 0.0043 0.190448 l 0.01515,0.18959 c 0.0127,0.15734 0.01933,0.29554 0.01933,0.4159 0,0.60602 -0.211494,1.15158 -0.6215,1.60145 -0.411161,0.45557 -0.962512,0.69309 -1.598864,0.69309 -0.467651,0 -0.859884,-0.11619 -1.138812,-0.36974 l -9.09e-4,-9.1e-4 -9.09e-4,-6e-4 c -0.26297,-0.24339 -0.405751,-0.56315 -0.405751,-0.91286 0,-0.53268 0.264775,-0.97904 0.74019,-1.25467 0.472458,-0.27391 1.104519,-0.39811 1.894431,-0.39811 z"
       sodipodi:nodetypes="ccscssscccccccccccccccscsssccccccccccccccccsccccccsccssscsccscccssscccccsscccccscccscscccssscccccssccccsscccccscccsccccscscccsscc" />
    <path
       id="path89203"
       style="font-size:64px;line-height:1.25;font-family:'Franklin Gothic Book';-inkscape-font-specification:'Franklin Gothic Book, ';white-space:pre;stroke-width:0.195538;fill:#ffffff"
       d="m 94.118599,203.13079 v 7.84159 h 2.964543 c 0.934566,0 1.679333,-0.36122 2.29317,-1.11885 0.615793,-0.76408 0.924478,-1.69537 0.924478,-2.82297 0,-1.11 -0.315281,-2.02744 -0.946757,-2.78385 -0.623915,-0.74735 -1.474628,-1.11592 -2.616791,-1.11592 z m 0.636228,0.45352 h 1.920624 c 0.999876,0 1.784879,0.35919 2.268139,1.06443 0.471309,0.6818 0.7088,1.45834 0.7088,2.30919 0,1.03499 -0.243851,1.89223 -0.746245,2.54799 -0.508273,0.66343 -1.276527,1.0008 -2.230694,1.0008 H 94.96476 94.754827 Z m 15.816543,1.52357 c -0.66872,4e-5 -1.17222,0.16137 -1.54348,0.47083 l -6.1e-4,9.1e-4 -9e-4,6e-4 c -0.37642,0.31013 -0.54895,0.66686 -0.54895,1.12425 0,0.41941 0.12841,0.72558 0.39138,0.9691 0.2705,0.25049 0.63925,0.42463 1.12431,0.5158 l 1.31448,0.24194 -6e-4,-6.1e-4 c 0.37903,0.0686 0.68202,0.18478 0.90128,0.37213 0.21925,0.18734 0.33878,0.45327 0.33878,0.7429 0,0.3807 -0.18692,0.71412 -0.51564,0.92233 -0.31861,0.20182 -0.70454,0.29905 -1.13946,0.29905 -0.57273,0 -1.0477,-0.0993 -1.41761,-0.31816 -0.31145,-0.18428 -0.51826,-0.47182 -0.65093,-0.80879 l -0.50876,0.10322 c 0.16992,0.42583 0.40933,0.7641 0.7621,0.98888 0.41364,0.26358 0.96858,0.4036 1.67945,0.4036 0.75463,0 1.33529,-0.16286 1.76398,-0.47263 2e-4,-1.9e-4 2.8e-4,-2.8e-4 6.1e-4,-6.1e-4 0.42968,-0.31474 0.62566,-0.69216 0.62566,-1.19552 0,-0.44614 -0.13601,-0.77622 -0.4132,-1.0388 -0.2772,-0.26258 -0.71287,-0.45819 -1.32276,-0.56639 l -1.21664,-0.21159 -9.1e-4,-6.1e-4 c -0.34695,-0.0627 -0.62666,-0.17162 -0.82939,-0.34986 -0.20274,-0.17824 -0.31191,-0.43094 -0.31191,-0.70468 0,-0.34505 0.17372,-0.65054 0.4736,-0.83823 0.29665,-0.18712 0.66485,-0.27432 1.08894,-0.27432 0.78036,0 1.36522,0.33376 1.67739,0.92884 l 0.48487,-0.10208 c -0.15249,-0.36147 -0.3628,-0.65147 -0.67505,-0.84497 -0.37453,-0.23209 -0.88032,-0.35658 -1.53016,-0.35661 z m 11.88228,0 2.3e-4,2.3e-4 c -0.78419,0 -1.37857,0.13844 -1.79062,0.39078 -0.35027,0.2145 -0.55663,0.52979 -0.67918,0.92997 l 0.48303,0.0816 c 0.11024,-0.31683 0.28641,-0.59038 0.56226,-0.76718 0.33231,-0.21297 0.76368,-0.30872 1.28234,-0.30872 0.42635,0 0.78576,0.0668 1.07469,0.21765 0.28178,0.14712 0.48815,0.3641 0.58087,0.63408 0.0948,0.25991 0.12931,0.61955 0.12931,1.11322 v 0.21451 l -0.21934,-0.009 c -0.3774,-0.0161 -0.65188,-0.0243 -0.81813,-0.0243 -1.26238,0 -2.13175,0.20572 -2.60257,0.55672 l -2.3e-4,6e-4 -6e-4,2.3e-4 c -0.49329,0.36404 -0.71937,0.79469 -0.71937,1.35314 0,0.45836 0.15996,0.83075 0.49979,1.15977 0.32818,0.31775 0.80113,0.48478 1.46401,0.48478 0.97079,0 1.59996,-0.36586 1.99826,-1.14943 l 0.34544,-0.67995 0.0521,0.75775 c 0.0311,0.45341 0.0622,0.71252 0.0912,0.90839 h 0.54069 c -0.0597,-0.3106 -0.11279,-0.6261 -0.11279,-0.97945 v -2.59363 c 0,-0.89252 -0.18267,-1.48321 -0.48508,-1.79272 l -9.1e-4,-9.1e-4 -9.1e-4,-9.1e-4 c -0.3009,-0.31486 -0.84551,-0.49736 -1.67487,-0.49736 z m -20.23843,0.16931 6.1e-4,3.69426 c 0,0.72551 0.17218,1.25488 0.49267,1.61869 v 6.1e-4 c 0.32664,0.36601 0.75613,0.54526 1.34778,0.54526 0.80913,0 1.3798,-0.3768 1.80028,-1.21531 0.11307,-0.26391 0.40448,-0.10499 0.39827,0.0908 v 0.96123 h 0.45087 v -5.69537 h -0.54963 v 3.23445 c 0,0.40876 -0.0923,0.7943 -0.27631,1.14583 v 9e-4 l -6.1e-4,6.1e-4 c -0.18147,0.34231 -0.41563,0.61646 -0.70237,0.81126 l -6.1e-4,6e-4 c -0.28446,0.19596 -0.61378,0.29658 -0.96583,0.29658 -0.36106,0 -0.70123,-0.13771 -0.99154,-0.39034 l -0.002,-0.002 -0.002,-0.002 c -0.32284,-0.29055 -0.45087,-0.77015 -0.45087,-1.40306 v -3.69399 z m 12.41973,0 v 0.33255 h 3.25716 l -3.51027,4.9017 v 0.46094 h 4.17498 v -0.3204 h -3.62465 l 3.62465,-5.13083 v -0.24396 z m 8.34996,2.60577 c 0.21119,0 0.51259,0.0128 0.90174,0.0364 h 0.003 0.19041 l 0.0149,0.18932 c 0.0127,0.15711 0.0195,0.2951 0.0195,0.4153 0,0.60513 -0.21142,1.14991 -0.62084,1.59912 -0.41055,0.45491 -0.96088,0.69209 -1.59631,0.69209 -0.46698,0 -0.85864,-0.11602 -1.13717,-0.3692 l -9.1e-4,-9.1e-4 -9e-4,-6.1e-4 c -0.26259,-0.24303 -0.4054,-0.56234 -0.4054,-0.91154 0,-0.5319 0.26439,-0.97762 0.73912,-1.25285 0.47178,-0.27352 1.10315,-0.39754 1.89192,-0.39754 z"
       sodipodi:nodetypes="ccscsssccscssscccccccsscccsssssccssccsscccsscsccsccccsccssscsccscccssscccccsscccccccccsccccccscccccscccsccccccccccccccccccscscccsscc" />
  </g>
</svg>
