<?xml version="1.0" encoding="UTF-8" standalone="no"?>
<svg
   width="28.102829"
   height="20.596113"
   version="1.1"
   id="svg4"
   sodipodi:docname="home_icon.svg"
   inkscape:version="1.1 (c68e22c387, 2021-05-23)"
   xmlns:inkscape="http://www.inkscape.org/namespaces/inkscape"
   xmlns:sodipodi="http://sodipodi.sourceforge.net/DTD/sodipodi-0.dtd"
   xmlns="http://www.w3.org/2000/svg"
   xmlns:svg="http://www.w3.org/2000/svg">
  <defs
     id="defs8">
    <inkscape:path-effect
       effect="powerclip"
       id="path-effect873"
       is_visible="true"
       lpeversion="1"
       inverse="true"
       flatten="false"
       hide_clip="false"
       message="Use fill-rule evenodd on &lt;b&gt;fill and stroke&lt;/b&gt; dialog if no flatten result after convert clip to paths." />
    <inkscape:path-effect
       effect="powerclip"
       id="path-effect5021"
       is_visible="true"
       lpeversion="1"
       inverse="true"
       flatten="false"
       hide_clip="false"
       message="Use fill-rule evenodd on &lt;b&gt;fill and stroke&lt;/b&gt; dialog if no flatten result after convert clip to paths." />
    <clipPath
       clipPathUnits="userSpaceOnUse"
       id="clipPath5013">
      <g
         id="g5019"
         style="display:none">
        <path
           style="color:#000000;fill:#000000;stroke-width:1.85259;stroke-linecap:round;stroke-miterlimit:9.05;-inkscape-stroke:none"
           d="M 2.9259467,4.3470907 H 17.420674 V 14.578385 H 2.9259467 Z"
           id="path5015" />
        <path
           style="color:#000000;fill:#000000;stroke-linecap:round;stroke-miterlimit:9.05;-inkscape-stroke:none"
           d="M 2,3.4199219 V 4.3476562 15.503906 H 18.347656 V 3.4199219 Z M 3.8515625,5.2734375 H 16.494141 V 13.652344 H 3.8515625 Z"
           id="path5017" />
      </g>
      <path
         id="lpe_path-effect5021"
         class="powerclip"
         d="M -4.2128906,-2.7578125 H 24.525391 V 21.683594 H -4.2128906 Z M 2.9259467,4.3470907 V 14.578385 H 17.420674 V 4.3470907 Z M 2,3.4199219 V 4.3476562 15.503906 H 18.347656 V 3.4199219 Z M 3.8515625,5.2734375 V 13.652344 H 16.494141 V 5.2734375 Z" />
    </clipPath>
    <clipPath
       clipPathUnits="userSpaceOnUse"
       id="clipath_lpe_path-effect873">
      <g
         id="g881"
         style="display:none">
        <path
           style="color:#000000;fill:#000000;stroke-width:1.85259;stroke-linecap:round;stroke-miterlimit:9.05;-inkscape-stroke:none"
           d="M 2.9259467,4.3470907 H 17.420674 V 14.578385 H 2.9259467 Z"
           id="path877" />
        <path
           style="color:#000000;fill:#000000;stroke-linecap:round;stroke-miterlimit:9.05;-inkscape-stroke:none"
           d="M 2,3.4199219 V 4.3476562 15.503906 H 18.347656 V 3.4199219 Z M 3.8515625,5.2734375 H 16.494141 V 13.652344 H 3.8515625 Z"
           id="path879" />
      </g>
      <path
         id="lpe_path-effect873"
         class="powerclip"
         d="M -4.7128906,-3.2578125 H 25.025391 V 22.183594 H -4.7128906 Z M 2.9259467,4.3470907 V 14.578385 H 17.420674 V 4.3470907 Z M 2,3.4199219 V 4.3476562 15.503906 H 18.347656 V 3.4199219 Z M 3.8515625,5.2734375 V 13.652344 H 16.494141 V 5.2734375 Z" />
    </clipPath>
  </defs>
  <sodipodi:namedview
     id="namedview6"
     pagecolor="#ffffff"
     bordercolor="#666666"
     borderopacity="1.0"
     inkscape:pageshadow="2"
     inkscape:pageopacity="0.0"
     inkscape:pagecheckerboard="0"
     showgrid="false"
     inkscape:zoom="8"
     inkscape:cx="2.4375"
     inkscape:cy="4.4375"
     inkscape:window-width="1920"
     inkscape:window-height="1001"
     inkscape:window-x="-9"
     inkscape:window-y="-9"
     inkscape:window-maximized="1"
     inkscape:current-layer="svg4"
     showguides="true"
     inkscape:guide-bbox="true"
     fit-margin-top="0"
     fit-margin-left="0"
     fit-margin-right="0"
     fit-margin-bottom="0">
    <sodipodi:guide
       position="10.346878,15.841262"
       orientation="1,0"
       id="guide2455" />
    <sodipodi:guide
       position="15.665499,7.7530392"
       orientation="0,-1"
       id="guide2457" />
    <sodipodi:guide
       position="13.533149,13.708913"
       orientation="0,-1"
       id="guide2492" />
    <sodipodi:guide
       position="13.242917,12.628391"
       orientation="0,-1"
       id="guide3988" />
    <sodipodi:guide
       position="12.757648,11.553867"
       orientation="0,-1"
       id="guide4066" />
  </sodipodi:namedview>
  <path
     style="color:#000000;fill:#ffffff;stroke-linecap:round;stroke-linejoin:round;stroke-miterlimit:9.05;-inkscape-stroke:none"
     d="m 2.859375,2.2421875 c -1.1381384,0 -2.07226563,0.9341272 -2.07226563,2.0722656 V 14.609375 c 0,1.138138 0.93412723,2.074219 2.07226563,2.074219 h 14.59375 c 1.138138,0 2.072266,-0.93608 2.072266,-2.074219 V 4.3144531 c 0,-1.1381388 -0.934128,-2.0722656 -2.072266,-2.0722656 z m 0,1.1992188 h 14.59375 c 0.494095,0 0.873047,0.3789515 0.873047,0.8730468 V 14.609375 c 0,0.494095 -0.378952,0.873047 -0.873047,0.873047 H 2.859375 c -0.4940958,0 -0.8730469,-0.378951 -0.8730469,-0.873047 V 4.3144531 c 0,-0.4940958 0.3789511,-0.8730468 0.8730469,-0.8730468 z"
     id="rect1002"
     clip-path="url(#clipPath5013)"
     inkscape:path-effect="#path-effect5021"
     inkscape:original-d="m 2.859375,2.2421875 c -1.1381384,0 -2.07226563,0.9341272 -2.07226563,2.0722656 V 14.609375 c 0,1.138138 0.93412723,2.074219 2.07226563,2.074219 h 14.59375 c 1.138138,0 2.072266,-0.93608 2.072266,-2.074219 V 4.3144531 c 0,-1.1381388 -0.934128,-2.0722656 -2.072266,-2.0722656 z m 0,1.1992188 h 14.59375 c 0.494095,0 0.873047,0.3789515 0.873047,0.8730468 V 14.609375 c 0,0.494095 -0.378952,0.873047 -0.873047,0.873047 H 2.859375 c -0.4940958,0 -0.8730469,-0.378951 -0.8730469,-0.873047 V 4.3144531 c 0,-0.4940958 0.3789511,-0.8730468 0.8730469,-0.8730468 z"
     transform="matrix(1.1771707,0,0,1.1771707,42.035873,0.53407737)" />
  <path
     style="fill:none;stroke:#ffffff;stroke-width:1.4126;stroke-linecap:round;stroke-linejoin:round;stroke-miterlimit:9.05;stroke-dasharray:none;stroke-opacity:1"
     d="m 43.747896,6.7290933 c 0,0 0.655633,1.8019111 1.640073,2.5786925 2.572603,2.0299362 7.39068,4.4323882 8.621558,4.4323882 1.245721,0 6.165672,-2.491429 8.713632,-4.5050973 0.933034,-0.7373833 1.547999,-2.5059834 1.547999,-2.5059834"
     id="path2494"
     sodipodi:nodetypes="csssc" />
  <path
     style="color:#000000;fill:#ffffff;stroke:#ffffff;stroke-linecap:square;stroke-linejoin:miter;stroke-miterlimit:9.05;-inkscape-stroke:none"
     d="m 2.859375,2.2421875 c -1.1381384,0 -2.07226563,0.9341272 -2.07226563,2.0722656 V 14.609375 c 0,1.138138 0.93412723,2.074219 2.07226563,2.074219 h 14.59375 c 1.138138,0 2.072266,-0.93608 2.072266,-2.074219 V 4.3144531 c 0,-1.1381388 -0.934128,-2.0722656 -2.072266,-2.0722656 z m 0,1.1992188 h 14.59375 c 0.494095,0 0.873047,0.3789515 0.873047,0.8730468 V 14.609375 c 0,0.494095 -0.378952,0.873047 -0.873047,0.873047 H 2.859375 c -0.4940958,0 -0.8730469,-0.378951 -0.8730469,-0.873047 V 4.3144531 c 0,-0.4940958 0.3789511,-0.8730468 0.8730469,-0.8730468 z"
     id="path869"
     clip-path="url(#clipath_lpe_path-effect873)"
     inkscape:path-effect="#path-effect873"
     inkscape:original-d="m 2.859375,2.2421875 c -1.1381384,0 -2.07226563,0.9341272 -2.07226563,2.0722656 V 14.609375 c 0,1.138138 0.93412723,2.074219 2.07226563,2.074219 h 14.59375 c 1.138138,0 2.072266,-0.93608 2.072266,-2.074219 V 4.3144531 c 0,-1.1381388 -0.934128,-2.0722656 -2.072266,-2.0722656 z m 0,1.1992188 h 14.59375 c 0.494095,0 0.873047,0.3789515 0.873047,0.8730468 V 14.609375 c 0,0.494095 -0.378952,0.873047 -0.873047,0.873047 H 2.859375 c -0.4940958,0 -0.8730469,-0.378951 -0.8730469,-0.873047 V 4.3144531 c 0,-0.4940958 0.3789511,-0.8730468 0.8730469,-0.8730468 z"
     transform="matrix(1.1771707,0,0,0.84519423,2.0358724,6.072638)" />
  <path
     style="fill:none;stroke:#ffffff;stroke-width:1.72889;stroke-linecap:round;stroke-linejoin:round;stroke-miterlimit:9.05;stroke-dasharray:none;stroke-opacity:1"
     d="m 1.0658164,9.1518104 c 0,0 -1.25970804,0.9093196 0,0 3.29195,-2.3762922 11.3346986,-8.28736543 12.9097516,-8.28736543 1.594048,0 9.829738,5.90046493 13.090155,8.25771343 1.193926,0.8631986 0,0 0,0"
     id="path875"
     sodipodi:nodetypes="csssc" />
</svg>
