<?xml version="1.0" encoding="UTF-8" standalone="no"?>
<svg
   width="22.058157"
   height="17"
   version="1.1"
   id="svg4"
   sodipodi:docname="icon-email.svg"
   inkscape:version="1.1 (c68e22c387, 2021-05-23)"
   xmlns:inkscape="http://www.inkscape.org/namespaces/inkscape"
   xmlns:sodipodi="http://sodipodi.sourceforge.net/DTD/sodipodi-0.dtd"
   xmlns="http://www.w3.org/2000/svg"
   xmlns:svg="http://www.w3.org/2000/svg">
  <defs
     id="defs8">
    <inkscape:path-effect
       effect="powerclip"
       id="path-effect5021"
       is_visible="true"
       lpeversion="1"
       inverse="true"
       flatten="false"
       hide_clip="false"
       message="Use fill-rule evenodd on &lt;b&gt;fill and stroke&lt;/b&gt; dialog if no flatten result after convert clip to paths." />
    <clipPath
       clipPathUnits="userSpaceOnUse"
       id="clipPath5013">
      <g
         id="g5019"
         style="display:none">
        <path
           style="color:#000000;fill:#000000;stroke-width:1.85259;stroke-linecap:round;stroke-miterlimit:9.05;-inkscape-stroke:none"
           d="M 2.9259467,4.3470907 H 17.420674 V 14.578385 H 2.9259467 Z"
           id="path5015" />
        <path
           style="color:#000000;fill:#000000;stroke-linecap:round;stroke-miterlimit:9.05;-inkscape-stroke:none"
           d="M 2,3.4199219 V 4.3476562 15.503906 H 18.347656 V 3.4199219 Z M 3.8515625,5.2734375 H 16.494141 V 13.652344 H 3.8515625 Z"
           id="path5017" />
      </g>
      <path
         id="lpe_path-effect5021"
         class="powerclip"
         d="M -4.2128906,-2.7578125 H 24.525391 V 21.683594 H -4.2128906 Z M 2.9259467,4.3470907 V 14.578385 H 17.420674 V 4.3470907 Z M 2,3.4199219 V 4.3476562 15.503906 H 18.347656 V 3.4199219 Z M 3.8515625,5.2734375 V 13.652344 H 16.494141 V 5.2734375 Z" />
    </clipPath>
  </defs>
  <sodipodi:namedview
     id="namedview6"
     pagecolor="#ffffff"
     bordercolor="#666666"
     borderopacity="1.0"
     inkscape:pageshadow="2"
     inkscape:pageopacity="0.0"
     inkscape:pagecheckerboard="0"
     showgrid="false"
     inkscape:zoom="7.2125"
     inkscape:cx="-7.8336222"
     inkscape:cy="-5.0606586"
     inkscape:window-width="1920"
     inkscape:window-height="1001"
     inkscape:window-x="-9"
     inkscape:window-y="-9"
     inkscape:window-maximized="1"
     inkscape:current-layer="svg4"
     showguides="true"
     inkscape:guide-bbox="true"
     fit-margin-top="0"
     fit-margin-left="0"
     fit-margin-right="0"
     fit-margin-bottom="0">
    <sodipodi:guide
       position="9.3844436,15.418664"
       orientation="1,0"
       id="guide2455" />
    <sodipodi:guide
       position="14.703064,7.3304408"
       orientation="0,-1"
       id="guide2457" />
    <sodipodi:guide
       position="12.570714,13.286315"
       orientation="0,-1"
       id="guide2492" />
    <sodipodi:guide
       position="12.280482,12.205793"
       orientation="0,-1"
       id="guide3988" />
    <sodipodi:guide
       position="11.795213,11.131269"
       orientation="0,-1"
       id="guide4066" />
  </sodipodi:namedview>
  <path
     style="color:#000000;fill:#ffffff;stroke-linecap:round;stroke-linejoin:round;stroke-miterlimit:9.05;-inkscape-stroke:none"
     d="m 2.859375,2.2421875 c -1.1381384,0 -2.07226563,0.9341272 -2.07226563,2.0722656 V 14.609375 c 0,1.138138 0.93412723,2.074219 2.07226563,2.074219 h 14.59375 c 1.138138,0 2.072266,-0.93608 2.072266,-2.074219 V 4.3144531 c 0,-1.1381388 -0.934128,-2.0722656 -2.072266,-2.0722656 z m 0,1.1992188 h 14.59375 c 0.494095,0 0.873047,0.3789515 0.873047,0.8730468 V 14.609375 c 0,0.494095 -0.378952,0.873047 -0.873047,0.873047 H 2.859375 c -0.4940958,0 -0.8730469,-0.378951 -0.8730469,-0.873047 V 4.3144531 c 0,-0.4940958 0.3789511,-0.8730468 0.8730469,-0.8730468 z"
     id="rect1002"
     clip-path="url(#clipPath5013)"
     inkscape:path-effect="#path-effect5021"
     inkscape:original-d="m 2.859375,2.2421875 c -1.1381384,0 -2.07226563,0.9341272 -2.07226563,2.0722656 V 14.609375 c 0,1.138138 0.93412723,2.074219 2.07226563,2.074219 h 14.59375 c 1.138138,0 2.072266,-0.93608 2.072266,-2.074219 V 4.3144531 c 0,-1.1381388 -0.934128,-2.0722656 -2.072266,-2.0722656 z m 0,1.1992188 h 14.59375 c 0.494095,0 0.873047,0.3789515 0.873047,0.8730468 V 14.609375 c 0,0.494095 -0.378952,0.873047 -0.873047,0.873047 H 2.859375 c -0.4940958,0 -0.8730469,-0.378951 -0.8730469,-0.873047 V 4.3144531 c 0,-0.4940958 0.3789511,-0.8730468 0.8730469,-0.8730468 z"
     transform="matrix(1.1771707,0,0,1.1771707,-0.92656209,-2.6394374)" />
  <path
     style="fill:none;stroke:#ffffff;stroke-width:1.4126;stroke-linecap:round;stroke-linejoin:round;stroke-miterlimit:9.05;stroke-dasharray:none;stroke-opacity:1"
     d="m 0.7854611,3.5555785 c 0,0 0.6556331,1.8019111 1.6400731,2.5786925 2.5726032,2.0299364 7.3906794,4.432388 8.6215578,4.432388 1.245721,0 6.165672,-2.4914286 8.713632,-4.5050971 0.933034,-0.7373833 1.547999,-2.5059834 1.547999,-2.5059834"
     id="path2494"
     sodipodi:nodetypes="csssc" />
</svg>
